<svg width="104" height="58" viewBox="0 0 104 58" fill="none" xmlns="http://www.w3.org/2000/svg">
<path d="M0.707284 35.7967H7.74375C8.03392 35.7967 8.25759 35.7477 8.41476 35.6495C8.57192 35.5391 8.68679 35.4104 8.75933 35.2632C8.84395 35.1161 8.89233 34.9627 8.90441 34.8034C8.9286 34.644 8.94068 34.509 8.94068 34.3987C8.94068 34.2761 8.9286 34.1473 8.90441 34.0124C8.88022 33.8774 8.82582 33.7487 8.74119 33.6261C8.65657 33.4911 8.52962 33.3686 8.36035 33.2582C8.20319 33.1356 7.98556 33.0313 7.70748 32.9455L2.70216 31.3451C1.86794 31.0754 1.2997 30.6645 0.997448 30.1127C0.695195 29.5608 0.544067 28.8434 0.544067 27.9605C0.544067 27.0407 0.77378 26.2927 1.23321 25.7163C1.70472 25.1399 2.44222 24.8517 3.4457 24.8517H10.7542V26.7832H4.08044C3.77819 26.7832 3.5243 26.8814 3.31876 27.0775C3.11322 27.2737 3.01046 27.6048 3.01046 28.0708C3.01046 28.218 3.01651 28.359 3.02859 28.4939C3.05278 28.6289 3.10114 28.7637 3.17368 28.8986C3.2583 29.0212 3.37316 29.1377 3.51825 29.2481C3.66333 29.3463 3.86281 29.4383 4.11671 29.524L8.75933 31.014C9.21876 31.1612 9.61168 31.3267 9.93812 31.5107C10.2766 31.6946 10.5547 31.9216 10.7723 32.1913C10.99 32.4488 11.1471 32.7615 11.2439 33.1294C11.3527 33.4851 11.4071 33.9142 11.4071 34.4171C11.4071 34.8953 11.3527 35.3368 11.2439 35.7415C11.1471 36.1462 10.99 36.4957 10.7723 36.79C10.5547 37.0843 10.2706 37.3172 9.91998 37.489C9.58146 37.6484 9.17039 37.7281 8.68679 37.7281H0.707284V35.7967ZM12.7886 29.6344C12.7886 28.5307 13.3327 27.9789 14.4208 27.9789H22.7449C23.289 27.9789 23.7907 28.0341 24.2501 28.1444C24.7094 28.2426 25.1025 28.4203 25.4289 28.6779C25.7554 28.9354 26.0093 29.2787 26.1906 29.708C26.384 30.1373 26.4808 30.6707 26.4808 31.3083V37.7281H24.359V31.8786C24.359 31.1428 24.2017 30.5847 23.8874 30.2046C23.5851 29.8245 23.0714 29.6344 22.3459 29.6344H20.6956V37.7281H18.5738V29.6344H15.4545C15.0918 29.6344 14.9104 29.8184 14.9104 30.1863V37.7281H12.7886V29.6344ZM34.0191 27.9789C34.4666 27.9789 34.8594 28.0524 35.1979 28.1996C35.5366 28.3346 35.8206 28.5307 36.0503 28.7882C36.2801 29.0458 36.4492 29.3523 36.558 29.708C36.6669 30.0513 36.7213 30.4316 36.7213 30.8485V36.0726C36.7213 37.1763 36.1772 37.7281 35.0891 37.7281H30.247C29.425 37.7281 28.8204 37.4768 28.4335 36.9739C28.0467 36.4711 27.8531 35.7109 27.8531 34.693C27.8531 33.7732 28.0467 33.0374 28.4335 32.4856C28.8204 31.9338 29.425 31.6578 30.247 31.6578H34.5994V31.0324C34.5994 30.1005 34.1522 29.6344 33.2574 29.6344H28.5604V27.9789H34.0191ZM31.0631 33.3134C30.7004 33.3134 30.4406 33.4299 30.2833 33.6629C30.1261 33.8836 30.0475 34.2269 30.0475 34.693C30.0475 35.159 30.1261 35.5085 30.2833 35.7415C30.4406 35.9622 30.7004 36.0726 31.0631 36.0726H34.0554C34.4181 36.0726 34.5994 35.8886 34.5994 35.5208V33.3134H31.0631ZM38.3975 31.6578C38.3975 30.3456 38.718 29.4075 39.3586 28.8434C40.0115 28.267 40.9849 27.9789 42.2784 27.9789H43.7111V29.6344H42.8225C41.9642 29.6344 41.3657 29.8489 41.0271 30.2782C40.6886 30.7075 40.5193 31.3573 40.5193 32.2281V37.7281H38.3975V31.6578ZM49.2951 37.7281C48.751 37.7281 48.2614 37.6791 47.8261 37.581C47.3909 37.4706 47.0162 37.2928 46.7018 37.0475C46.3996 36.79 46.1638 36.4589 45.9945 36.0542C45.8374 35.6495 45.7587 35.1467 45.7587 34.5458V29.6344H44.4348V27.9789H45.7587V24.8517H47.8805V27.9789H50.619V29.6344H47.8805V34.1043C47.8805 34.8401 48.068 35.3552 48.4427 35.6495C48.8175 35.9316 49.3676 36.0726 50.093 36.0726H50.619V37.7281H49.2951ZM59.3461 26.1578C59.5757 25.6181 59.8357 25.2442 60.1259 25.0357C60.4281 24.815 60.8633 24.7046 61.4316 24.7046C61.9757 24.7046 62.3987 24.815 62.7011 25.0357C63.0153 25.2442 63.2873 25.6181 63.5172 26.1578L68.3049 37.7281H65.7841L64.4783 34.4722H58.3668L57.0792 37.7281H54.5584L59.3461 26.1578ZM58.9834 32.7431H63.8618L61.7943 27.5006C61.7581 27.4024 61.7096 27.2921 61.6493 27.1695C61.5887 27.0345 61.5162 26.9672 61.4316 26.9672C61.3469 26.9672 61.2743 27.0345 61.214 27.1695C61.1535 27.2921 61.1052 27.4024 61.0689 27.5006L58.9834 32.7431ZM77.4737 36.0726C77.4737 37.1763 76.9297 37.7281 75.8416 37.7281H72.4865C71.7128 37.7281 71.072 37.6116 70.5642 37.3786C70.0564 37.1457 69.6513 36.8146 69.3491 36.3853C69.059 35.956 68.8534 35.441 68.7325 34.8401C68.6117 34.2393 68.5512 33.5709 68.5512 32.8351C68.5512 32.0993 68.6117 31.4371 68.7325 30.8485C68.8534 30.2476 69.059 29.7386 69.3491 29.3217C69.6513 28.8924 70.0564 28.5613 70.5642 28.3284C71.072 28.0954 71.7128 27.9789 72.4865 27.9789H75.3519V24.8517H77.4737V36.0726ZM73.0125 29.6344C72.5047 29.6344 72.0996 29.7142 71.7974 29.8735C71.4952 30.0329 71.2654 30.2598 71.1083 30.5541C70.9511 30.8363 70.8483 31.1734 70.8 31.5659C70.7637 31.9583 70.7456 32.3814 70.7456 32.8351C70.7456 33.3012 70.7637 33.7303 70.8 34.1227C70.8483 34.5152 70.9511 34.8585 71.1083 35.1529C71.2654 35.435 71.4952 35.6617 71.7974 35.8335C72.0996 35.9928 72.5047 36.0726 73.0125 36.0726H74.8078C75.1705 36.0726 75.3519 35.8886 75.3519 35.5208V29.6344H73.0125ZM85.0245 27.9789C85.4719 27.9789 85.8648 28.0524 86.2032 28.1996C86.5419 28.3346 86.826 28.5307 87.0556 28.7882C87.2854 29.0458 87.4546 29.3523 87.5634 29.708C87.6722 30.0513 87.7266 30.4316 87.7266 30.8485V36.0726C87.7266 37.1763 87.1825 37.7281 86.0944 37.7281H81.2523C80.4303 37.7281 79.8258 37.4768 79.4388 36.9739C79.052 36.4711 78.8585 35.7109 78.8585 34.693C78.8585 33.7732 79.052 33.0374 79.4388 32.4856C79.8258 31.9338 80.4303 31.6578 81.2523 31.6578H85.6048V31.0324C85.6048 30.1005 85.1575 29.6344 84.2628 29.6344H79.5658V27.9789H85.0245ZM82.0684 33.3134C81.7057 33.3134 81.4459 33.4299 81.2886 33.6629C81.1315 33.8836 81.0528 34.2269 81.0528 34.693C81.0528 35.159 81.1315 35.5085 81.2886 35.7415C81.4459 35.9622 81.7057 36.0726 82.0684 36.0726H85.0607C85.4234 36.0726 85.6048 35.8886 85.6048 35.5208V33.3134H82.0684ZM89.4028 29.6344C89.4028 28.5307 89.9469 27.9789 91.035 27.9789H99.3591C99.9031 27.9789 100.405 28.0341 100.864 28.1444C101.324 28.2426 101.717 28.4203 102.043 28.6779C102.37 28.9354 102.623 29.2787 102.805 29.708C102.998 30.1373 103.095 30.6707 103.095 31.3083V37.7281H100.973V31.8786C100.973 31.1428 100.816 30.5847 100.502 30.2046C100.199 29.8245 99.6855 29.6344 98.9601 29.6344H97.3098V37.7281H95.188V29.6344H92.0687C91.706 29.6344 91.5246 29.8184 91.5246 30.1863V37.7281H89.4028V29.6344Z" fill="#004D40"/>
<path d="M34.7959 54.4339H33.2326V50.7339H28.9216V54.4339H27.3583V46.0248H28.9216V49.4725H33.2326V46.0248H34.7959V54.4339ZM44.3778 45.9287C45.1515 45.9287 45.807 45.9927 46.3438 46.1209C46.8886 46.2491 47.3307 46.4774 47.6703 46.8057C48.0099 47.1261 48.2545 47.5664 48.4046 48.1271C48.5624 48.6797 48.6415 49.3804 48.6415 50.2293C48.6415 51.0783 48.5624 51.783 48.4046 52.3436C48.2545 52.8962 48.0099 53.3367 47.6703 53.665C47.3307 53.9854 46.8886 54.2096 46.3438 54.3378C45.807 54.466 45.1515 54.53 44.3778 54.53C43.6119 54.53 42.9566 54.466 42.4118 54.3378C41.875 54.2096 41.4368 53.9854 41.0972 53.665C40.7576 53.3367 40.5089 52.8962 40.3511 52.3436C40.201 51.783 40.126 51.0783 40.126 50.2293C40.126 49.3804 40.201 48.6797 40.3511 48.1271C40.5089 47.5664 40.7576 47.1261 41.0972 46.8057C41.4368 46.4774 41.875 46.2491 42.4118 46.1209C42.9566 45.9927 43.6119 45.9287 44.3778 45.9287ZM41.7367 50.2293C41.7367 50.83 41.7762 51.3265 41.8552 51.7189C41.942 52.1114 42.0882 52.4238 42.2934 52.656C42.4986 52.8803 42.7671 53.0404 43.0987 53.1365C43.4383 53.2245 43.8647 53.2686 44.3778 53.2686C44.8832 53.2686 45.3055 53.2245 45.6451 53.1365C45.9924 53.0404 46.2648 52.8803 46.4623 52.656C46.6675 52.4238 46.8137 52.1114 46.9005 51.7189C46.9873 51.3265 47.0307 50.83 47.0307 50.2293C47.0307 49.6287 46.9873 49.1322 46.9005 48.7397C46.8137 48.3473 46.6675 48.039 46.4623 47.8147C46.2648 47.5826 45.9924 47.4223 45.6451 47.3342C45.3055 47.2381 44.8832 47.1901 44.3778 47.1901C43.8647 47.1901 43.4383 47.2381 43.0987 47.3342C42.7671 47.4223 42.4986 47.5826 42.2934 47.8147C42.0882 48.039 41.942 48.3473 41.8552 48.7397C41.7762 49.1322 41.7367 49.6287 41.7367 50.2293ZM60.317 53.5209C60.2539 53.681 60.1906 53.8251 60.1275 53.9533C60.0644 54.0815 59.9854 54.1897 59.8907 54.2777C59.8039 54.3578 59.6973 54.4179 59.5709 54.4579C59.4525 54.5059 59.3064 54.53 59.1327 54.53C58.9511 54.53 58.8011 54.5059 58.6826 54.4579C58.5642 54.4179 58.4576 54.3578 58.3629 54.2777C58.2761 54.1897 58.2009 54.0815 58.1378 53.9533C58.0747 53.8251 58.0114 53.681 57.9483 53.5209L55.8284 47.9108C55.8126 47.8628 55.7849 47.8067 55.7455 47.7427C55.706 47.6706 55.6664 47.6345 55.627 47.6345C55.5639 47.6345 55.5243 47.6745 55.5086 47.7547C55.5006 47.8268 55.4968 47.8709 55.4968 47.8868L55.5323 54.4339H53.969V47.0339C53.969 46.6495 54.0874 46.3692 54.3243 46.193C54.5611 46.0167 54.8889 45.9287 55.3073 45.9287C55.5441 45.9287 55.7416 45.9567 55.8994 46.0128C56.0652 46.0689 56.1994 46.1489 56.3021 46.2531C56.4126 46.3492 56.5034 46.4654 56.5745 46.6014C56.6456 46.7296 56.7087 46.8657 56.764 47.0099L58.9077 52.6199C58.9471 52.7079 58.9826 52.7842 59.0142 52.8482C59.0537 52.9043 59.0933 52.9322 59.1327 52.9322C59.1721 52.9322 59.2076 52.9043 59.2393 52.8482C59.2787 52.7842 59.3183 52.7079 59.3577 52.6199L61.5014 47.0099C61.5567 46.8657 61.6198 46.7296 61.6909 46.6014C61.7619 46.4654 61.8487 46.3492 61.9514 46.2531C62.0619 46.1489 62.1962 46.0689 62.3541 46.0128C62.5199 45.9567 62.7212 45.9287 62.9581 45.9287C63.3765 45.9287 63.7042 46.0167 63.9411 46.193C64.178 46.3692 64.2964 46.6495 64.2964 47.0339V54.4339H62.7331L62.7805 47.8868C62.7805 47.7748 62.7607 47.7066 62.7212 47.6826C62.6896 47.6505 62.662 47.6345 62.6383 47.6345C62.5989 47.6345 62.5593 47.6706 62.5199 47.7427C62.4805 47.8067 62.4527 47.8628 62.437 47.9108L60.317 53.5209ZM76.5092 54.4339H71.0731C70.7178 54.4339 70.4256 54.3458 70.1967 54.1696C69.9755 53.9854 69.865 53.653 69.865 53.1725V47.2862C69.865 46.8057 69.9755 46.4774 70.1967 46.3011C70.4256 46.117 70.7178 46.0248 71.0731 46.0248H76.4618V47.2862H72.0205C71.7837 47.2862 71.6258 47.3262 71.5468 47.4063C71.4678 47.4864 71.4284 47.6466 71.4284 47.8868V49.5086H76.3434V50.7699H71.4284V52.5719C71.4284 52.8121 71.4678 52.9722 71.5468 53.0524C71.6258 53.1325 71.7837 53.1725 72.0205 53.1725H76.5092V54.4339Z" fill="#7CB935"/>
<path d="M51.862 0.0564183L27.6498 9.93533C27.4951 9.9984 27.401 10.1585 27.4201 10.3265L28.2591 17.7298C28.2865 17.9724 28.5314 18.1242 28.7567 18.0385L51.8695 9.2471C51.9536 9.21512 52.0463 9.21523 52.1303 9.24744L75.0677 18.0408C75.2899 18.126 75.5327 17.9797 75.5653 17.7409L76.5727 10.3324C76.5958 10.1618 76.5016 9.99707 76.3442 9.9328L52.1381 0.0564188C52.0494 0.0202565 51.9506 0.0202561 51.862 0.0564183Z" fill="#7CB935"/>
</svg>
